<?xml version="1.0" encoding="utf-8"?>
<!-- Generator: Adobe Illustrator 18.1.0, SVG Export Plug-In . SVG Version: 6.00 Build 0)  -->
<svg version="1.1" id="Calque_1" xmlns="http://www.w3.org/2000/svg" xmlns:xlink="http://www.w3.org/1999/xlink" x="0px" y="0px"
	 viewBox="0 0 50 50" enable-background="new 0 0 50 50" xml:space="preserve">
<g>
	<path fill="#4C413F" d="M40,15.1c-0.4-0.1-0.8,0.2-1,0.6c0,0.1-0.1,0.2-0.1,0.3c0,0,0,0.1,0,0.1c-0.1,0.2-0.1,0.3-0.2,0.5
		c-0.3,0.7-0.8,1.4-1.2,2.1c0,0.1-0.1,0.1-0.1,0.2c0,0,0,0,0,0c-0.1,0.1-0.1,0.1-0.2,0.2c-0.1,0.2-0.3,0.3-0.4,0.5
		c-0.3,0.3-0.6,0.6-0.9,0.9c-0.1,0.1-0.2,0.2-0.3,0.2c0,0-0.2,0.1-0.2,0.1c-0.1,0.1-0.3,0.2-0.4,0.3c-0.3,0.2-0.6,0.3-0.9,0.5
		c0.2-0.2,0.5-0.4,0.7-0.6c1.9-1.9,1.9-4.6,1.9-4.9l0-1c0-0.5-0.4-0.9-0.9-0.9c-0.5,0-1,0-1,0c-0.3,0-2.5,0.1-4.3,1.4
		c0-0.2,0-0.4,0.1-0.7c0.1-1.5,0-3.1-0.2-4.6c-0.1-0.4-0.3-0.8-0.8-0.8c-0.4,0-0.8,0.4-0.8,0.8c0.2,1.5,0.3,3,0.2,4.4
		c0,0.2,0,0.4-0.1,0.6c0,0,0,0,0,0c0,0,0,0,0,0c0,0,0,0.1,0,0.1c0,0.1,0,0.2,0,0.2c-0.1,0.4-0.1,0.7-0.2,1.1
		c-0.1,0.2-0.1,0.4-0.2,0.6c0,0,0,0,0,0c-0.6-1.2-1.3-2-1.4-2.1l-0.7-0.7c-0.4-0.4-1-0.4-1.3,0c-0.4,0.4-0.7,0.7-0.7,0.7
		c-0.2,0.2-1.7,1.8-2,4.1L22,18.9c-0.3-0.3-0.8-0.2-1.2,0.1c-0.4,0.4-0.7,0.7-0.7,0.7c-0.2,0.2-1.7,1.8-2,4.1l-0.5-0.5
		c-0.3-0.3-0.8-0.2-1.2,0.1c-0.4,0.4-0.7,0.7-0.7,0.7c-0.2,0.2-2,2.2-2,4.8c0,2.6,1.9,4.6,2.1,4.8l0.1,0.1l-4.1,4.1
		c-0.5,0.5-0.5,1.1-0.2,1.5c0.3,0.3,1,0.3,1.5-0.2l4.1-4.1c0.3,0.2,2.2,2.1,4.8,2.1c2.6,0,4.6-1.8,4.8-2.1l0.7-0.7
		c0.4-0.4,0.4-0.9,0.1-1.2c-0.3-0.3-0.5-0.5-0.5-0.5c2.3-0.3,3.9-1.8,4.1-2l0.7-0.7c0.4-0.4,0.4-0.9,0.1-1.2
		c-0.3-0.3-0.5-0.5-0.5-0.5c2.3-0.3,3.9-1.8,4.1-2l0.7-0.7c0.4-0.4,0.4-1,0-1.3c-0.4-0.4-0.7-0.7-0.7-0.7c-0.1-0.1-0.4-0.4-1-0.8
		c1.3-0.5,2.5-1.5,3.4-2.6c1.1-1.3,2-2.7,2.5-4.3C40.7,15.6,40.4,15.2,40,15.1z M31.4,17.3c1.4-1.4,3.6-1.4,3.6-1.4s0,2.2-1.4,3.6
		c-1.4,1.4-3.6,1.4-3.6,1.4S30.1,18.7,31.4,17.3z M25.9,16.6c0,0,1.5,1.6,1.5,3.5c0,1.9-1.5,3.5-1.5,3.5s-1.5-1.6-1.5-3.5
		C24.4,18.2,25.9,16.6,25.9,16.6z M21.5,21c0,0,1.5,1.6,1.5,3.5S21.5,28,21.5,28S20,26.5,20,24.5C20,22.6,21.5,21,21.5,21z
		 M17.1,32.4c0,0-1.5-1.6-1.5-3.5c0-1.9,1.5-3.5,1.5-3.5s1.5,1.6,1.5,3.5S17.1,32.4,17.1,32.4z M22,35.4c-1.8,0-3.3-1.3-3.5-1.5
		l0.3-0.3c0.6-0.5,1.8-1.2,3.2-1.2c1.9,0,3.5,1.5,3.5,1.5S24,35.4,22,35.4z M26.4,31c-1.8,0-3.3-1.3-3.5-1.5l0.3-0.3
		c0.6-0.5,1.8-1.2,3.2-1.2c1.9,0,3.5,1.5,3.5,1.5S28.4,31,26.4,31z M30.8,26.6c-1.8,0-3.3-1.3-3.5-1.5l0,0l0,0
		c0.3-0.3,1.7-1.5,3.5-1.5c1.9,0,3.5,1.5,3.5,1.5S32.8,26.6,30.8,26.6z"/>
</g>
<g>
	<line stroke="#4C413F" stroke-width="3.5798" stroke-miterlimit="10" x1="8.9" y1="9" x2="40.1" y2="41.9"/>
	<circle fill="none" stroke="#4C413F" stroke-width="3.5798" stroke-miterlimit="10" cx="25.2" cy="24.7" r="22.7"/>
</g>
</svg>
