<?xml version="1.0" encoding="utf-8"?>
<!-- Generator: Adobe Illustrator 16.0.3, SVG Export Plug-In . SVG Version: 6.00 Build 0)  -->
<!DOCTYPE svg PUBLIC "-//W3C//DTD SVG 1.1//EN" "http://www.w3.org/Graphics/SVG/1.1/DTD/svg11.dtd">
<svg version="1.1" id="Calque_1" xmlns="http://www.w3.org/2000/svg" xmlns:xlink="http://www.w3.org/1999/xlink" x="0px" y="0px"
	 width="250px" height="250px" viewBox="0 0 250 250" enable-background="new 0 0 250 250" xml:space="preserve">
<g>
	<path fill="#FFFFFF" d="M250.321,125.373c0,11.109,0.79,22.301-0.345,33.295c-0.543,5.271-3.424,12.101-7.527,14.923
		c-36.011,24.784-72.594,48.767-108.881,73.135c-5.82,3.918-10.853,3.859-16.654-0.039c-36.306-24.379-72.849-48.381-108.909-73.105
		c-3.927-2.694-7.281-9.129-7.429-13.955c-0.77-23.203-0.73-46.462-0.02-69.675c0.148-4.54,3.354-10.625,7.084-13.171
		C44.007,51.909,80.816,27.693,117.417,3.157c5.477-3.672,10.331-3.612,15.796,0.039c36.603,24.526,73.44,48.722,109.767,73.658
		c3.868,2.655,6.571,9.202,7.026,14.197C251.031,102.421,250.321,113.925,250.321,125.373z M30.529,87.01
		c12.333,8.285,23.204,15.969,34.55,22.857c1.904,1.166,6.333-0.241,8.761-1.776c11.878-7.551,23.52-15.486,35.143-23.435
		c2.112-1.447,5.268-3.588,5.307-5.479c0.436-15.475,0.247-30.966,0.247-48.228C85.62,50.241,58.687,68.218,30.529,87.01z
		 M135.818,30.836c0,16.878-0.157,31.514,0.178,46.117c0.06,2.191,1.895,5.073,3.777,6.385
		c12.658,8.804,25.464,17.416,38.488,25.681c1.992,1.264,6.018,1.599,7.892,0.424c11.03-6.85,21.715-14.267,33.909-22.433
		C191.826,68.188,164.745,50.122,135.818,30.836z M114.726,219.308c0-16.641,0.294-30.694-0.229-44.71
		c-0.107-3-2.545-6.869-5.091-8.685c-11.71-8.389-23.767-16.315-35.901-24.103c-2.229-1.431-6.244-2.862-7.922-1.825
		c-11.534,7.086-22.653,14.813-35.112,23.144C58.923,182.099,85.838,200.052,114.726,219.308z M135.818,219.308
		c28.888-19.256,55.96-37.308,84.255-56.179c-12.165-8.132-22.81-15.594-33.881-22.344c-2.051-1.255-6.462-0.612-8.739,0.809
		c-12.471,7.856-24.726,16.107-36.83,24.536c-2.161,1.51-4.509,4.569-4.587,6.968C135.622,187.725,135.818,202.371,135.818,219.308z
		 M87.416,125.112c12.244,8.192,23.224,15.703,34.413,22.868c1.598,1.017,4.825,1.273,6.314,0.336
		c11.443-7.294,22.672-14.973,35.005-23.213c-12.294-8.237-23.027-15.648-34.029-22.621c-1.805-1.131-5.435-1.402-7.122-0.341
		C110.74,109.231,99.769,116.811,87.416,125.112z M48.643,124.958c-9.55-6.228-17.442-11.35-25.769-16.769
		c0,11.977,0,22.36,0,34.115C31.772,136.324,39.408,131.196,48.643,124.958z M227.887,142.463c0-12.278,0-22.656,0-34.757
		c-9.056,6.076-16.852,11.311-25.907,17.385C211.035,131.167,218.672,136.304,227.887,142.463z"/>
</g>
</svg>
