<?xml version="1.0" encoding="utf-8"?>
<!-- Generator: Adobe Illustrator 16.0.3, SVG Export Plug-In . SVG Version: 6.00 Build 0)  -->
<!DOCTYPE svg PUBLIC "-//W3C//DTD SVG 1.1//EN" "http://www.w3.org/Graphics/SVG/1.1/DTD/svg11.dtd">
<svg version="1.1" id="Calque_1" xmlns="http://www.w3.org/2000/svg" xmlns:xlink="http://www.w3.org/1999/xlink" x="0px" y="0px"
	 width="250px" height="250px" viewBox="0 0 250 250" enable-background="new 0 0 250 250" xml:space="preserve">
<g>
	<path fill="#FFFFFF" d="M0,0c83.331,0,166.67,0,250,0c0,83.332,0,166.669,0,250c-83.33,0-166.669,0-250,0C0,166.663,0,83.332,0,0z
		 M124.793,239.917c31.806,0,63.604,0,95.416,0c12.585,0,21.399-8.448,21.411-21.009c0.072-63.892,0.072-127.776-0.012-191.662
		c-0.014-12.028-9.168-21.033-21.192-21.045c-63.61-0.048-127.215-0.048-190.829,0C17.563,6.207,8.411,15.213,8.398,27.247
		C8.313,91.132,8.307,155.017,8.38,218.908c0.013,12.561,8.832,20.997,21.427,20.997C61.463,239.917,93.125,239.917,124.793,239.917
		z"/>
	<path fill="#FFFFFF" d="M99.969,92.969c10.899,0,21.305,0.034,31.702-0.024c2.308-0.012,2.796,1.169,2.759,3.125
		c-0.061,3.28-0.019,6.564-0.019,10.781c6.158-8.545,13.63-13.763,23.065-15.738c10.389-2.176,20.666-1.505,30.506,2.695
		c12.072,5.148,17.639,15.344,19.61,27.5c1.349,8.295,1.654,16.803,1.771,25.232c0.25,18.45,0.006,36.919,0.141,55.376
		c0.023,3.254-0.886,4.334-4.212,4.261c-9.155-0.207-18.316-0.189-27.479-0.006c-3.107,0.062-4.027-0.922-4.004-4.022
		c0.109-18.048,0.153-36.091-0.079-54.138c-0.062-4.933-0.652-9.985-1.897-14.746c-1.844-7.078-6.738-10.889-13.281-11.301
		c-8.093-0.513-15.564,0.976-19.251,9.127c-1.831,4.054-2.99,8.747-3.076,13.178c-0.367,18.598-0.196,37.195-0.238,55.792
		c-0.012,6.043-0.012,6.043-6.22,6.043c-8.743,0-17.486-0.085-26.229,0.056c-2.768,0.042-3.901-0.654-3.895-3.693
		c0.095-35.522,0.064-71.057,0.076-106.589C99.726,95.077,99.855,94.275,99.969,92.969z"/>
	<path fill="#FFFFFF" d="M43.213,149.158c0-17.054,0.113-34.119-0.088-51.176c-0.044-4.043,1.231-5.224,5.212-5.105
		c8.868,0.275,17.748,0.192,26.626,0.024c3.124-0.058,4.443,0.736,4.43,4.132c-0.095,34.949-0.088,69.91,0,104.858
		c0.007,3.235-1.007,4.358-4.32,4.292c-9.15-0.196-18.311-0.221-27.455,0.006c-3.588,0.085-4.477-1.301-4.458-4.603
		C43.269,184.106,43.213,166.626,43.213,149.158z"/>
	<path fill="#FFFFFF" d="M61.438,37.207c11.506,0.019,20.536,9.095,20.476,20.582c-0.056,11.307-9.488,20.599-20.801,20.487
		C49.805,78.17,40.525,68.75,40.601,57.464C40.68,46.109,49.851,37.189,61.438,37.207z"/>
</g>
</svg>
