<?xml version="1.0" encoding="utf-8"?>
<!-- Generator: Adobe Illustrator 16.0.3, SVG Export Plug-In . SVG Version: 6.00 Build 0)  -->
<!DOCTYPE svg PUBLIC "-//W3C//DTD SVG 1.1//EN" "http://www.w3.org/Graphics/SVG/1.1/DTD/svg11.dtd">
<svg version="1.1" id="Calque_1" xmlns="http://www.w3.org/2000/svg" xmlns:xlink="http://www.w3.org/1999/xlink" x="0px" y="0px"
	 width="270px" height="90px" viewBox="0 0 270 90" enable-background="new 0 0 270 90" xml:space="preserve">
<g>
	<g>
		<path fill="#FFFFFF" d="M40.363,7.844c-1.473,0.652-3.052,1.095-4.712,1.292c1.695-1.015,2.992-2.625,3.607-4.537
			c-1.59,0.94-3.344,1.623-5.214,1.992C32.547,4.995,30.417,4,28.056,4c-4.532,0-8.206,3.674-8.206,8.203
			c0,0.643,0.072,1.271,0.212,1.87C13.243,13.73,7.197,10.463,3.15,5.499c-0.707,1.21-1.109,2.62-1.109,4.125
			c0,2.847,1.449,5.359,3.648,6.829c-1.344-0.045-2.609-0.415-3.716-1.03v0.103c0,3.974,2.83,7.292,6.581,8.046
			c-0.688,0.185-1.412,0.287-2.163,0.287c-0.529,0-1.042-0.052-1.544-0.152c1.044,3.262,4.074,5.633,7.663,5.698
			c-2.807,2.2-6.346,3.507-10.19,3.507c-0.662,0-1.315-0.04-1.957-0.112c3.632,2.332,7.943,3.692,12.577,3.692
			c15.095,0,23.345-12.503,23.345-23.345l-0.027-1.063C37.871,10.934,39.266,9.489,40.363,7.844z"/>
	</g>
</g>
<g>
	<g>
		<path fill="#55ACEE" d="M40.363,57.844c-1.473,0.652-3.052,1.096-4.712,1.293c1.695-1.016,2.992-2.625,3.607-4.537
			c-1.59,0.939-3.344,1.623-5.214,1.992C32.547,54.994,30.417,54,28.056,54c-4.532,0-8.206,3.674-8.206,8.203
			c0,0.643,0.072,1.27,0.212,1.869C13.243,63.73,7.197,60.463,3.15,55.5c-0.707,1.209-1.109,2.619-1.109,4.123
			c0,2.848,1.449,5.359,3.648,6.83c-1.344-0.047-2.609-0.416-3.716-1.031v0.104c0,3.973,2.83,7.291,6.581,8.045
			c-0.688,0.186-1.412,0.287-2.163,0.287c-0.529,0-1.042-0.053-1.544-0.152c1.044,3.262,4.074,5.635,7.663,5.699
			c-2.807,2.199-6.346,3.508-10.19,3.508c-0.662,0-1.315-0.041-1.957-0.113c3.632,2.332,7.943,3.691,12.577,3.691
			c15.095,0,23.345-12.502,23.345-23.344l-0.027-1.064C37.871,60.934,39.266,59.488,40.363,57.844z"/>
	</g>
</g>
<g>
	<path fill="#FFFFFF" d="M80.175,0.008L74.989,0c-5.828,0-9.594,3.864-9.594,9.844v4.539h-5.216c-0.45,0-0.815,0.365-0.815,0.815
		v6.577c0,0.45,0.366,0.815,0.815,0.815h5.216v16.594c0,0.451,0.365,0.815,0.814,0.815h6.807c0.449,0,0.814-0.365,0.814-0.815V22.59
		h6.098c0.452,0,0.816-0.365,0.816-0.815l0.002-6.577c0-0.216-0.086-0.423-0.238-0.577c-0.152-0.153-0.361-0.239-0.577-0.239h-6.101
		v-3.848c0-1.849,0.44-2.788,2.85-2.788l3.494-0.001c0.451,0,0.816-0.365,0.816-0.815V0.823C80.991,0.374,80.625,0.009,80.175,0.008
		z"/>
</g>
<g>
	<path fill="#3B5998" d="M80.175,50.008L74.989,50c-5.828,0-9.594,3.863-9.594,9.844v4.539h-5.216c-0.45,0-0.815,0.365-0.815,0.816
		v6.576c0,0.449,0.366,0.814,0.815,0.814h5.216v16.594c0,0.451,0.365,0.816,0.814,0.816h6.807c0.449,0,0.814-0.365,0.814-0.816
		V72.59h6.098c0.452,0,0.816-0.365,0.816-0.814l0.002-6.576c0-0.217-0.086-0.424-0.238-0.578c-0.152-0.152-0.361-0.238-0.577-0.238
		h-6.101v-3.848c0-1.85,0.44-2.789,2.85-2.789h3.494c0.451,0,0.816-0.365,0.816-0.816v-6.105
		C80.991,50.373,80.625,50.01,80.175,50.008z"/>
</g>
<g>
	<path fill-rule="evenodd" clip-rule="evenodd" fill="#FFFFFF" d="M90.497,50.379c13.333,0,26.667,0,40,0c0,13.333,0,26.666,0,40
		c-13.333,0-26.667,0-40,0C90.497,77.045,90.497,63.712,90.497,50.379z M110.464,88.765c5.088,0,10.177,0,15.266-0.001
		c2.014,0,3.425-1.35,3.427-3.361c0.011-10.222,0.011-20.443-0.003-30.665c-0.002-1.925-1.466-3.365-3.391-3.367
		c-10.177-0.009-20.354-0.009-30.532,0c-1.924,0.002-3.388,1.443-3.39,3.368c-0.014,10.222-0.015,20.443-0.003,30.665
		c0.002,2.011,1.413,3.36,3.428,3.36C100.331,88.765,105.397,88.765,110.464,88.765z"/>
	<path fill-rule="evenodd" clip-rule="evenodd" fill="#0077B5" d="M110.464,88.765c-5.067,0-10.133,0-15.2-0.001
		c-2.015,0-3.426-1.35-3.428-3.36c-0.011-10.222-0.011-20.443,0.003-30.665c0.002-1.925,1.466-3.366,3.39-3.368
		c10.178-0.009,20.355-0.009,30.532,0c1.925,0.002,3.389,1.442,3.391,3.367c0.014,10.222,0.015,20.443,0.003,30.665
		c-0.002,2.012-1.413,3.361-3.427,3.361C120.641,88.765,115.552,88.765,110.464,88.765z M106.492,65.254
		c-0.018,0.209-0.039,0.337-0.039,0.465c-0.002,5.685,0.003,11.37-0.012,17.056c-0.001,0.485,0.18,0.596,0.623,0.589
		c1.399-0.021,2.798-0.007,4.197-0.007c0.993-0.001,0.993-0.001,0.995-0.967c0.005-2.977-0.021-5.952,0.038-8.928
		c0.014-0.708,0.199-1.46,0.492-2.107c0.59-1.306,1.786-1.543,3.08-1.462c1.048,0.066,1.832,0.676,2.125,1.809
		c0.198,0.763,0.293,1.57,0.304,2.36c0.037,2.886,0.03,5.773,0.012,8.66c-0.003,0.496,0.144,0.654,0.642,0.645
		c1.465-0.028,2.932-0.032,4.396,0.001c0.532,0.012,0.678-0.16,0.674-0.682c-0.022-2.953,0.017-5.907-0.023-8.86
		c-0.018-1.348-0.068-2.71-0.283-4.037c-0.315-1.945-1.206-3.576-3.138-4.4c-1.574-0.672-3.218-0.778-4.881-0.431
		c-1.51,0.315-2.704,1.15-3.69,2.518c0-0.674-0.007-1.199,0.003-1.725c0.006-0.313-0.073-0.502-0.441-0.5
		C109.901,65.26,108.236,65.254,106.492,65.254z M97.411,74.243c0,2.796,0.009,5.593-0.008,8.389
		c-0.003,0.528,0.139,0.75,0.713,0.736c1.463-0.036,2.929-0.032,4.393-0.001c0.53,0.011,0.692-0.17,0.691-0.688
		c-0.013-5.592-0.014-11.185,0-16.776c0.001-0.543-0.209-0.671-0.709-0.661c-1.42,0.027-2.841,0.04-4.26-0.004
		c-0.637-0.021-0.841,0.169-0.834,0.816C97.428,68.784,97.41,71.514,97.411,74.243z M100.327,56.332
		c-1.854-0.003-3.321,1.424-3.334,3.241c-0.012,1.806,1.473,3.313,3.282,3.33c1.81,0.018,3.319-1.47,3.328-3.278
		C103.613,57.787,102.168,56.335,100.327,56.332z"/>
	<path fill-rule="evenodd" clip-rule="evenodd" fill="#FFFFFF" d="M106.492,65.254c1.744,0,3.409,0.006,5.073-0.004
		c0.368-0.002,0.447,0.188,0.441,0.5c-0.01,0.525-0.003,1.051-0.003,1.725c0.986-1.367,2.181-2.202,3.69-2.518
		c1.663-0.348,3.307-0.241,4.881,0.431c1.932,0.824,2.823,2.455,3.138,4.4c0.215,1.327,0.265,2.689,0.283,4.037
		c0.04,2.953,0.001,5.907,0.023,8.86c0.004,0.521-0.142,0.693-0.674,0.682c-1.465-0.033-2.931-0.029-4.396-0.001
		c-0.498,0.01-0.645-0.148-0.642-0.645c0.018-2.887,0.025-5.774-0.012-8.66c-0.01-0.79-0.105-1.598-0.304-2.36
		c-0.294-1.133-1.078-1.742-2.125-1.809c-1.294-0.081-2.49,0.156-3.08,1.462c-0.293,0.647-0.479,1.399-0.492,2.107
		c-0.058,2.976-0.032,5.951-0.038,8.928c-0.002,0.966-0.002,0.966-0.995,0.967c-1.399,0-2.798-0.014-4.197,0.007
		c-0.443,0.007-0.624-0.104-0.623-0.589c0.015-5.686,0.01-11.371,0.012-17.056C106.453,65.591,106.474,65.463,106.492,65.254z"/>
	<path fill-rule="evenodd" clip-rule="evenodd" fill="#FFFFFF" d="M97.411,74.243c0-2.729,0.018-5.459-0.014-8.188
		c-0.007-0.647,0.197-0.837,0.834-0.816c1.419,0.044,2.84,0.031,4.26,0.004c0.5-0.01,0.711,0.118,0.709,0.661
		c-0.015,5.592-0.014,11.185,0,16.776c0.001,0.518-0.161,0.698-0.691,0.688c-1.464-0.031-2.93-0.035-4.393,0.001
		c-0.574,0.014-0.716-0.208-0.713-0.736C97.42,79.836,97.411,77.039,97.411,74.243z"/>
	<path fill-rule="evenodd" clip-rule="evenodd" fill="#FFFFFF" d="M100.327,56.332c1.841,0.003,3.286,1.455,3.276,3.293
		c-0.009,1.809-1.518,3.296-3.328,3.278c-1.809-0.018-3.294-1.524-3.282-3.33C97.006,57.756,98.473,56.329,100.327,56.332z"/>
</g>
<g>
	<path fill-rule="evenodd" clip-rule="evenodd" fill="#FFFFFF" d="M90.497,0.133c13.333,0,26.667,0,40,0c0,13.333,0,26.667,0,40
		c-13.333,0-26.667,0-40,0C90.497,26.799,90.497,13.466,90.497,0.133z M110.464,38.519c5.088,0,10.177,0,15.266,0
		c2.014,0,3.425-1.351,3.427-3.361c0.011-10.222,0.011-20.444-0.003-30.666c-0.002-1.924-1.466-3.365-3.391-3.367
		c-10.177-0.008-20.354-0.008-30.532,0c-1.924,0.001-3.388,1.442-3.39,3.367c-0.014,10.222-0.015,20.444-0.003,30.666
		c0.002,2.01,1.413,3.36,3.428,3.36C100.331,38.519,105.397,38.519,110.464,38.519z"/>
	<path fill-rule="evenodd" clip-rule="evenodd" fill="#FFFFFF" d="M106.492,15.008c1.744,0,3.409,0.005,5.073-0.004
		c0.368-0.002,0.447,0.187,0.441,0.5c-0.01,0.525-0.003,1.05-0.003,1.725c0.986-1.367,2.181-2.202,3.69-2.518
		c1.663-0.348,3.307-0.241,4.881,0.431c1.932,0.824,2.823,2.455,3.138,4.4c0.215,1.327,0.265,2.689,0.283,4.037
		c0.04,2.953,0.001,5.907,0.023,8.86c0.004,0.521-0.142,0.694-0.674,0.682c-1.465-0.033-2.931-0.03-4.396-0.001
		c-0.498,0.01-0.645-0.148-0.642-0.644c0.018-2.887,0.025-5.774-0.012-8.661c-0.01-0.79-0.105-1.598-0.304-2.36
		c-0.294-1.132-1.078-1.742-2.125-1.808c-1.294-0.082-2.49,0.156-3.08,1.461c-0.293,0.648-0.479,1.399-0.492,2.108
		c-0.058,2.975-0.032,5.951-0.038,8.927c-0.002,0.966-0.002,0.967-0.995,0.967c-1.399,0-2.798-0.014-4.197,0.008
		c-0.443,0.007-0.624-0.104-0.623-0.59c0.015-5.685,0.01-11.37,0.012-17.055C106.453,15.345,106.474,15.217,106.492,15.008z"/>
	<path fill-rule="evenodd" clip-rule="evenodd" fill="#FFFFFF" d="M97.411,23.998c0-2.729,0.018-5.459-0.014-8.188
		c-0.007-0.647,0.197-0.836,0.834-0.817c1.419,0.044,2.84,0.031,4.26,0.004c0.5-0.009,0.711,0.118,0.709,0.661
		c-0.015,5.592-0.014,11.185,0,16.777c0.001,0.518-0.161,0.698-0.691,0.687c-1.464-0.031-2.93-0.035-4.393,0.001
		c-0.574,0.014-0.716-0.208-0.713-0.736C97.42,29.59,97.411,26.793,97.411,23.998z"/>
	<path fill-rule="evenodd" clip-rule="evenodd" fill="#FFFFFF" d="M100.327,6.086c1.841,0.003,3.286,1.455,3.276,3.293
		c-0.009,1.809-1.518,3.296-3.328,3.278c-1.809-0.017-3.294-1.524-3.282-3.33C97.006,7.51,98.473,6.083,100.327,6.086z"/>
</g>
<g>
	<g>
		<path fill="#FFFFFF" d="M63.333-0.167c1.935,0,1.935-3,0-3S61.399-0.167,63.333-0.167L63.333-0.167z"/>
	</g>
</g>
<g>
	<g>
		<path fill="#FFFFFF" d="M55.167-1.667c1.935,0,1.935-3,0-3S53.232-1.667,55.167-1.667L55.167-1.667z"/>
	</g>
</g>
<g>
	<path fill-rule="evenodd" clip-rule="evenodd" fill="#FFFFFF" d="M180.403,90.04c-13.333,0-26.667,0-40,0c0-13.333,0-26.667,0-40
		c13.333,0,26.667,0,40,0C180.403,63.373,180.403,76.707,180.403,90.04z M150.629,75.518c-0.005,0.078-0.011,0.137-0.012,0.195
		c0,0.606,0.008,1.213-0.004,1.819c-0.004,0.186,0.063,0.218,0.23,0.218c1.813-0.006,3.626-0.003,5.439-0.004
		c0.064,0,0.129-0.005,0.194-0.008c0-0.75,0-1.479,0-2.229c-0.485,0-0.955,0-1.417,0c0-3.379,0-6.737,0-10.096
		c0.017-0.003,0.033-0.005,0.05-0.008c1.127,4.111,2.255,8.223,3.384,12.339c0.837,0,1.65-0.005,2.463,0.004
		c0.153,0.002,0.205-0.058,0.241-0.192c0.184-0.681,0.374-1.359,0.563-2.038c0.922-3.32,1.844-6.641,2.766-9.96
		c0.015-0.053,0.039-0.103,0.059-0.154c0.013,0.003,0.025,0.006,0.038,0.009c0,3.364,0,6.729,0,10.112c-0.459,0-0.909,0-1.368,0
		c0,0.744,0,1.468,0,2.206c0.066,0.006,0.125,0.015,0.183,0.015c2.187,0,4.373-0.001,6.56,0.003
		c0.148,0.001,0.196-0.042,0.194-0.191c-0.007-0.627-0.003-1.254-0.004-1.88c0-0.051-0.012-0.101-0.02-0.161c-0.207,0-0.4,0-0.593,0
		c-0.476,0.001-0.783-0.304-0.783-0.784c-0.003-3.08-0.003-6.16-0.004-9.239c0-0.094,0.005-0.187,0.007-0.28
		c0.005-0.275,0.377-0.659,0.673-0.621c0.228,0.029,0.462,0.006,0.705,0.006c0-0.787,0-1.549,0-2.328c-0.074,0-0.134,0-0.192,0
		c-2.273,0-4.547,0.004-6.82-0.005c-0.227-0.001-0.312,0.059-0.372,0.282c-0.76,2.84-1.532,5.677-2.303,8.514
		c-0.018,0.063-0.044,0.124-0.066,0.186c-0.065-0.069-0.085-0.131-0.103-0.194c-0.77-2.864-1.54-5.729-2.307-8.594
		c-0.036-0.134-0.082-0.193-0.237-0.193c-2.313,0.006-4.626,0.005-6.939,0.006c-0.064,0-0.129,0.005-0.2,0.009
		c0,0.778,0,1.54,0,2.317c0.23,0,0.443,0,0.656,0.001c0.414,0.001,0.725,0.297,0.725,0.708c0.002,3.16,0.002,6.319,0,9.479
		c0,0.409-0.331,0.729-0.739,0.731C151.063,75.519,150.853,75.518,150.629,75.518z"/>
	<path fill-rule="evenodd" clip-rule="evenodd" d="M150.629,75.518c0.224,0,0.435,0.001,0.646-0.001
		c0.408-0.003,0.739-0.322,0.739-0.731c0.002-3.16,0.002-6.319,0-9.479c0-0.411-0.311-0.707-0.725-0.708
		c-0.213-0.001-0.426-0.001-0.656-0.001c0-0.777,0-1.539,0-2.317c0.071-0.004,0.136-0.009,0.2-0.009
		c2.313-0.001,4.627,0,6.939-0.006c0.155,0,0.201,0.06,0.237,0.193c0.767,2.865,1.537,5.729,2.307,8.594
		c0.018,0.063,0.037,0.125,0.103,0.194c0.022-0.062,0.049-0.122,0.066-0.186c0.771-2.837,1.543-5.674,2.303-8.514
		c0.061-0.224,0.146-0.283,0.372-0.282c2.273,0.009,4.547,0.005,6.82,0.005c0.059,0,0.118,0,0.192,0c0,0.779,0,1.541,0,2.328
		c-0.243,0-0.478,0.023-0.705-0.006c-0.296-0.038-0.668,0.346-0.673,0.621c-0.002,0.094-0.007,0.187-0.007,0.28
		c0.001,3.079,0.001,6.159,0.004,9.239c0,0.48,0.308,0.785,0.783,0.784c0.192,0,0.386,0,0.593,0c0.008,0.061,0.02,0.11,0.02,0.161
		c0.001,0.626-0.003,1.253,0.004,1.88c0.002,0.149-0.046,0.192-0.194,0.191c-2.187-0.004-4.373-0.003-6.56-0.003
		c-0.058,0-0.116-0.009-0.183-0.015c0-0.738,0-1.462,0-2.206c0.459,0,0.909,0,1.368,0c0-3.384,0-6.748,0-10.112
		c-0.013-0.003-0.025-0.006-0.038-0.009c-0.02,0.052-0.044,0.102-0.059,0.154c-0.922,3.319-1.844,6.64-2.766,9.96
		c-0.189,0.679-0.38,1.357-0.563,2.038c-0.036,0.135-0.088,0.194-0.241,0.192c-0.813-0.009-1.626-0.004-2.463-0.004
		c-1.129-4.116-2.257-8.228-3.384-12.339c-0.017,0.003-0.033,0.005-0.05,0.008c0,3.358,0,6.717,0,10.096c0.462,0,0.932,0,1.417,0
		c0,0.75,0,1.479,0,2.229c-0.065,0.003-0.13,0.008-0.194,0.008c-1.813,0.001-3.627-0.002-5.439,0.004
		c-0.168,0-0.234-0.032-0.23-0.218c0.012-0.606,0.004-1.213,0.004-1.819C150.618,75.654,150.624,75.596,150.629,75.518z"/>
</g>
<g>
	<path fill-rule="evenodd" clip-rule="evenodd" fill="#FFFFFF" d="M150.629,25.517c0.224,0,0.435,0.001,0.646,0
		c0.408-0.003,0.739-0.322,0.739-0.732c0.002-3.16,0.002-6.319,0-9.479c0-0.411-0.311-0.707-0.725-0.708
		c-0.213-0.001-0.426,0-0.656,0c0-0.778,0-1.54,0-2.318c0.071-0.003,0.136-0.009,0.2-0.009c2.313,0,4.627,0,6.939-0.005
		c0.155,0,0.201,0.059,0.237,0.193c0.767,2.866,1.537,5.73,2.307,8.594c0.018,0.063,0.037,0.125,0.103,0.194
		c0.022-0.062,0.049-0.123,0.066-0.186c0.771-2.837,1.543-5.674,2.303-8.514c0.061-0.224,0.146-0.284,0.372-0.283
		c2.273,0.01,4.547,0.006,6.82,0.006c0.059,0,0.118,0,0.192,0c0,0.779,0,1.541,0,2.328c-0.243,0-0.478,0.023-0.705-0.006
		c-0.296-0.038-0.668,0.346-0.673,0.621c-0.002,0.093-0.007,0.187-0.007,0.28c0.001,3.08,0.001,6.16,0.004,9.239
		c0,0.481,0.308,0.785,0.783,0.785c0.192,0,0.386,0,0.593,0c0.008,0.06,0.02,0.11,0.02,0.16c0.001,0.627-0.003,1.253,0.004,1.88
		c0.002,0.15-0.046,0.192-0.194,0.192c-2.187-0.004-4.373-0.002-6.56-0.003c-0.058,0-0.116-0.008-0.183-0.014
		c0-0.739,0-1.462,0-2.207c0.459,0,0.909,0,1.368,0c0-3.384,0-6.748,0-10.112c-0.013-0.003-0.025-0.006-0.038-0.009
		c-0.02,0.051-0.044,0.102-0.059,0.154c-0.922,3.32-1.844,6.64-2.766,9.96c-0.189,0.679-0.38,1.358-0.563,2.038
		c-0.036,0.134-0.088,0.194-0.241,0.192c-0.813-0.009-1.626-0.004-2.463-0.004c-1.129-4.116-2.257-8.228-3.384-12.339
		c-0.017,0.002-0.033,0.005-0.05,0.008c0,3.358,0,6.717,0,10.096c0.462,0,0.932,0,1.417,0c0,0.75,0,1.479,0,2.228
		c-0.065,0.003-0.13,0.008-0.194,0.008c-1.813,0-3.627-0.001-5.439,0.004c-0.168,0-0.234-0.032-0.23-0.218
		c0.012-0.606,0.004-1.213,0.004-1.819C150.618,25.654,150.624,25.595,150.629,25.517z"/>
</g>
<g>
	<path fill-rule="evenodd" clip-rule="evenodd" fill="#FFFFFF" d="M220.74,90.319c-13.353,0-26.625,0-39.908,0
		c0-13.318,0-26.636,0-39.977c13.298,0,26.607,0,39.908,0C220.74,63.652,220.74,76.986,220.74,90.319z"/>
</g>
<g>
	<path fill-rule="evenodd" clip-rule="evenodd" fill="#FFFFFF" d="M213.078,20.475c0,1.099,0.079,2.207-0.034,3.294
		c-0.054,0.522-0.339,1.198-0.745,1.477c-3.565,2.452-7.186,4.825-10.778,7.237c-0.576,0.387-1.073,0.381-1.648-0.004
		c-3.593-2.412-7.211-4.787-10.78-7.234c-0.389-0.267-0.721-0.904-0.736-1.381c-0.075-2.296-0.071-4.597-0.001-6.894
		c0.014-0.449,0.332-1.051,0.7-1.303c3.601-2.461,7.244-4.857,10.867-7.285c0.542-0.363,1.022-0.357,1.563,0.004
		c3.624,2.427,7.27,4.821,10.865,7.288c0.383,0.263,0.651,0.911,0.696,1.405C213.148,18.203,213.078,19.342,213.078,20.475z
		 M191.323,16.678c1.22,0.82,2.296,1.58,3.419,2.262c0.189,0.115,0.627-0.024,0.867-0.176c1.177-0.747,2.329-1.532,3.479-2.319
		c0.209-0.143,0.521-0.355,0.526-0.542c0.043-1.531,0.024-3.064,0.024-4.772C196.775,13.041,194.109,14.819,191.323,16.678z
		 M201.745,11.121c0,1.67-0.017,3.118,0.017,4.563c0.005,0.217,0.188,0.502,0.374,0.632c1.253,0.871,2.521,1.723,3.81,2.541
		c0.197,0.125,0.595,0.158,0.781,0.042c1.092-0.678,2.149-1.412,3.356-2.22C207.288,14.816,204.606,13.029,201.745,11.121z
		 M199.657,29.77c0-1.647,0.029-3.038-0.023-4.425c-0.011-0.297-0.252-0.679-0.504-0.859c-1.159-0.83-2.353-1.614-3.554-2.385
		c-0.22-0.141-0.618-0.282-0.784-0.18c-1.142,0.701-2.242,1.466-3.476,2.29C194.133,26.088,196.797,27.864,199.657,29.77z
		 M201.745,29.769c2.858-1.905,5.539-3.691,8.339-5.558c-1.204-0.805-2.257-1.543-3.353-2.211c-0.203-0.124-0.64-0.061-0.865,0.08
		c-1.235,0.777-2.448,1.593-3.646,2.428c-0.214,0.149-0.447,0.452-0.455,0.689C201.724,26.645,201.745,28.094,201.745,29.769z
		 M196.953,20.448c1.212,0.811,2.299,1.554,3.407,2.263c0.157,0.1,0.477,0.126,0.624,0.033c1.134-0.721,2.245-1.481,3.465-2.297
		c-1.217-0.815-2.279-1.548-3.368-2.238c-0.178-0.112-0.538-0.139-0.705-0.034C199.262,18.878,198.176,19.627,196.953,20.448z
		 M193.116,20.434c-0.946-0.616-1.727-1.123-2.551-1.659c0,1.185,0,2.212,0,3.376C191.446,21.559,192.201,21.05,193.116,20.434z
		 M210.856,22.166c0-1.215,0-2.242,0-3.439c-0.896,0.601-1.667,1.119-2.564,1.72C209.189,21.048,209.946,21.555,210.856,22.166z"/>
	<path fill-rule="evenodd" clip-rule="evenodd" d="M190.565,18.775"/>
	<path fill-rule="evenodd" clip-rule="evenodd" d="M193.116,20.434"/>
	<path fill-rule="evenodd" clip-rule="evenodd" d="M210.856,18.727c0,1.197,0,2.224,0,3.439"/>
</g>
<g>
	<path fill-rule="evenodd" clip-rule="evenodd" fill="#FFFFFF" d="M270.431,90.323c-13.324,0-26.654,0-39.986,0
		c0-13.329,0-26.657,0-39.993c13.323,0,26.649,0,39.986,0C270.431,63.656,270.431,76.99,270.431,90.323z M250.925,75.11
		c0,0.154-0.001,0.294,0,0.434c0.013,1.692,0.014,3.385,0.043,5.077c0.023,1.37,0.907,2.418,2.125,2.539
		c0.154,0.015,0.406-0.051,0.458-0.155c0.061-0.123,0.009-0.384-0.093-0.49c-0.506-0.529-0.657-1.178-0.665-1.866
		c-0.019-1.653-0.012-3.307-0.015-4.96c0-0.098,0.012-0.194,0.023-0.376c0.446,0.479,0.52,0.997,0.521,1.529
		c0.004,1.159-0.008,2.317-0.011,3.477c-0.003,0.938,0.395,1.574,1.245,1.867c0.411,0.142,0.859,0.205,1.296,0.236
		c0.163,0.012,0.34-0.168,0.511-0.261c-0.111-0.146-0.191-0.348-0.339-0.427c-0.684-0.365-0.986-0.934-0.986-1.688
		c-0.002-1.367,0.008-2.734-0.004-4.102c-0.01-1.18-0.327-2.235-1.299-3.006c-0.012-0.009-0.001-0.047-0.001-0.019
		c0.997-0.219,1.999-0.383,2.967-0.665c1.587-0.463,2.925-1.308,3.702-2.837c0.145-0.284,0.307-0.354,0.6-0.34
		c2.488,0.125,4.952,0.408,7.367,1.047c0.102,0.026,0.208,0.036,0.312,0.054c0.006-0.033,0.011-0.066,0.016-0.1
		c-2.615-0.744-5.302-1.028-8.02-1.149c0.165-0.637,0.165-0.635,0.737-0.649c2.36-0.061,4.71,0.043,7.037,0.476
		c0.098,0.018,0.2,0.002,0.301,0.002c-2.58-0.601-5.192-0.682-7.712-0.615c0.089-1.27,0.219-2.484,0.249-3.702
		c0.045-1.794-0.563-3.366-1.775-4.701c-0.093-0.103-0.155-0.305-0.125-0.437c0.271-1.188,0.178-2.353-0.195-3.503
		c-0.179-0.551-0.261-0.599-0.849-0.504c-0.077,0.013-0.153,0.031-0.229,0.046c-1.222,0.241-2.293,0.823-3.342,1.464
		c-0.158,0.098-0.394,0.159-0.569,0.122c-2.524-0.541-5.037-0.511-7.548,0.092c-0.163,0.039-0.378-0.015-0.535-0.093
		c-0.871-0.434-1.716-0.925-2.604-1.32c-0.441-0.196-0.952-0.243-1.437-0.333c-0.217-0.04-0.389,0.03-0.479,0.286
		c-0.464,1.324-0.591,2.657-0.196,4.025c0.04,0.139-0.009,0.359-0.102,0.471c-1.069,1.286-1.576,2.764-1.566,4.43
		c0.007,1.229,0.147,2.438,0.556,3.717c-1.328,0-2.601-0.03-3.872,0.009c-1.273,0.039-2.538,0.2-3.776,0.522
		c0.105,0.038,0.207,0.04,0.306,0.022c2.25-0.419,4.521-0.529,6.804-0.48c0.607,0.014,0.607,0.013,0.835,0.659
		c-2.665,0.128-5.298,0.405-7.848,1.192c0.107,0.032,0.207,0.018,0.304-0.009c2.39-0.628,4.828-0.91,7.29-1.038
		c0.247-0.013,0.397,0.045,0.533,0.273c0.197,0.334,0.435,0.651,0.696,0.938c1.048,1.146,2.399,1.767,3.874,2.136
		c0.736,0.185,1.489,0.304,2.285,0.463c-0.639,0.496-1.036,1.117-1.229,1.871c-0.021,0.083-0.119,0.173-0.203,0.21
		c-0.718,0.313-1.467,0.46-2.247,0.314c-0.951-0.178-1.588-0.778-2.077-1.578c-0.504-0.823-1.191-1.424-2.181-1.547
		c-0.251-0.031-0.525,0.125-0.789,0.195c0.143,0.199,0.242,0.466,0.434,0.587c0.895,0.563,1.419,1.391,1.797,2.342
		c0.354,0.896,0.998,1.509,1.886,1.868c0.809,0.327,1.649,0.34,2.499,0.242c0.241-0.027,0.48-0.071,0.754-0.112
		c0,0.814-0.022,1.595,0.006,2.373c0.034,0.93-0.185,1.698-1.104,2.133c-0.111,0.053-0.244,0.28-0.21,0.364
		c0.05,0.123,0.239,0.268,0.369,0.268c0.348,0.001,0.703-0.038,1.041-0.119c1.145-0.272,1.643-0.963,1.624-2.142
		c-0.02-1.158-0.024-2.317-0.004-3.476c0.006-0.331,0.102-0.665,0.192-0.987c0.04-0.14,0.172-0.254,0.3-0.432
		c0.028,0.126,0.042,0.161,0.042,0.196c0,1.549,0,3.099-0.004,4.647c-0.002,0.895-0.047,1.772-0.735,2.473
		c-0.087,0.089-0.096,0.341-0.033,0.463c0.045,0.09,0.268,0.127,0.407,0.121c0.191-0.01,0.388-0.061,0.565-0.133
		c1.107-0.455,1.6-1.326,1.613-2.484c0.02-1.667,0.016-3.333,0.021-5c0-0.14,0-0.279,0-0.438
		C250.632,75.11,250.756,75.11,250.925,75.11z"/>
	<path fill-rule="evenodd" clip-rule="evenodd" d="M250.925,75.11c-0.169,0-0.293,0-0.464,0c0,0.159,0,0.299,0,0.438
		c-0.006,1.667-0.002,3.333-0.021,5c-0.014,1.158-0.506,2.029-1.613,2.484c-0.178,0.072-0.374,0.123-0.565,0.133
		c-0.14,0.006-0.362-0.031-0.407-0.121c-0.063-0.122-0.054-0.374,0.033-0.463c0.688-0.7,0.733-1.578,0.735-2.473
		c0.004-1.549,0.004-3.099,0.004-4.647c0-0.035-0.014-0.07-0.042-0.196c-0.128,0.178-0.26,0.292-0.3,0.432
		c-0.091,0.322-0.187,0.656-0.192,0.987c-0.021,1.158-0.016,2.317,0.004,3.476c0.019,1.179-0.479,1.869-1.624,2.142
		c-0.338,0.081-0.693,0.12-1.041,0.119c-0.13,0-0.319-0.145-0.369-0.268c-0.034-0.084,0.099-0.312,0.21-0.364
		c0.919-0.435,1.138-1.203,1.104-2.133c-0.028-0.778-0.006-1.559-0.006-2.373c-0.273,0.041-0.513,0.085-0.754,0.112
		c-0.85,0.098-1.69,0.085-2.499-0.242c-0.888-0.359-1.531-0.972-1.886-1.868c-0.378-0.951-0.902-1.778-1.797-2.342
		c-0.191-0.121-0.291-0.388-0.434-0.587c0.264-0.07,0.538-0.227,0.789-0.195c0.989,0.123,1.677,0.724,2.181,1.547
		c0.489,0.8,1.126,1.4,2.077,1.578c0.78,0.146,1.529-0.002,2.247-0.314c0.084-0.037,0.182-0.127,0.203-0.21
		c0.192-0.754,0.59-1.375,1.229-1.871c-0.796-0.159-1.549-0.278-2.285-0.463c-1.475-0.369-2.826-0.989-3.874-2.136
		c-0.262-0.286-0.499-0.604-0.696-0.938c-0.136-0.229-0.286-0.286-0.533-0.273c-2.462,0.128-4.9,0.41-7.29,1.038
		c-0.097,0.026-0.196,0.041-0.304,0.009c2.55-0.787,5.183-1.064,7.848-1.192c-0.228-0.646-0.228-0.646-0.835-0.659
		c-2.283-0.049-4.554,0.062-6.804,0.48c-0.099,0.018-0.2,0.016-0.306-0.022c1.238-0.322,2.503-0.483,3.776-0.522
		c1.271-0.039,2.544-0.009,3.872-0.009c-0.408-1.279-0.549-2.488-0.556-3.717c-0.01-1.666,0.497-3.144,1.566-4.43
		c0.093-0.111,0.142-0.332,0.102-0.471c-0.395-1.368-0.268-2.701,0.196-4.025c0.09-0.256,0.262-0.326,0.479-0.286
		c0.484,0.09,0.995,0.137,1.437,0.333c0.888,0.396,1.732,0.887,2.604,1.32c0.157,0.078,0.372,0.132,0.535,0.093
		c2.511-0.603,5.023-0.633,7.548-0.092c0.176,0.037,0.411-0.024,0.569-0.122c1.049-0.641,2.12-1.223,3.342-1.464
		c0.076-0.015,0.152-0.033,0.229-0.046c0.588-0.095,0.67-0.047,0.849,0.504c0.373,1.15,0.466,2.314,0.195,3.503
		c-0.03,0.132,0.032,0.334,0.125,0.437c1.213,1.335,1.82,2.907,1.775,4.701c-0.03,1.218-0.16,2.433-0.249,3.702
		c2.52-0.066,5.132,0.015,7.712,0.615c-0.101,0-0.203,0.016-0.301-0.002c-2.327-0.433-4.677-0.536-7.037-0.476
		c-0.572,0.015-0.572,0.013-0.737,0.649c2.718,0.121,5.404,0.405,8.02,1.149c-0.005,0.033-0.01,0.066-0.016,0.1
		c-0.104-0.018-0.21-0.027-0.312-0.054c-2.415-0.639-4.879-0.922-7.367-1.047c-0.293-0.015-0.455,0.056-0.6,0.34
		c-0.777,1.529-2.115,2.374-3.702,2.837c-0.968,0.282-1.97,0.446-2.967,0.665c0-0.028-0.011,0.01,0.001,0.019
		c0.972,0.771,1.289,1.826,1.299,3.006c0.012,1.367,0.002,2.734,0.004,4.102c0,0.754,0.303,1.322,0.986,1.688
		c0.147,0.079,0.228,0.281,0.339,0.427c-0.171,0.093-0.348,0.272-0.511,0.261c-0.437-0.031-0.885-0.095-1.296-0.236
		c-0.851-0.293-1.248-0.93-1.245-1.867c0.003-1.159,0.015-2.317,0.011-3.477c-0.001-0.532-0.074-1.05-0.521-1.529
		c-0.012,0.182-0.023,0.278-0.023,0.376c0.003,1.653-0.004,3.307,0.015,4.96c0.008,0.688,0.159,1.337,0.665,1.866
		c0.102,0.106,0.153,0.367,0.093,0.49c-0.052,0.104-0.304,0.17-0.458,0.155c-1.218-0.121-2.102-1.169-2.125-2.539
		c-0.029-1.692-0.03-3.385-0.043-5.077C250.924,75.404,250.925,75.265,250.925,75.11z M250.934,72.172
		c1.371-0.124,2.754-0.179,4.111-0.392c1.648-0.259,2.952-1.079,3.38-2.813c0.178-0.721,0.244-1.496,0.201-2.237
		c-0.087-1.489-1.459-2.931-2.939-3.111c-0.781-0.095-1.582-0.05-2.373-0.045c-1.508,0.01-3.016,0.052-4.522,0.051
		c-0.884,0-1.769-0.09-2.651-0.077c-0.893,0.012-1.69,0.286-2.383,0.911c-2.075,1.874-1.367,5.614,1.015,6.683
		c0.438,0.196,0.889,0.374,1.35,0.5C247.694,72.07,249.313,72.064,250.934,72.172z M246.2,75.586
		c-0.2-0.094-0.298-0.178-0.388-0.171c-0.095,0.007-0.184,0.102-0.275,0.157c0.093,0.069,0.179,0.178,0.28,0.194
		C245.9,75.78,246.002,75.686,246.2,75.586z M244.298,75.743c-0.194-0.092-0.292-0.178-0.384-0.172
		c-0.094,0.007-0.181,0.103-0.271,0.159c0.091,0.068,0.177,0.178,0.276,0.192C244.005,75.937,244.106,75.841,244.298,75.743z
		 M244.709,75.396c-0.049,0.135-0.133,0.252-0.113,0.349c0.016,0.077,0.163,0.186,0.241,0.178c0.098-0.01,0.186-0.125,0.276-0.194
		C245.031,75.66,244.949,75.593,244.709,75.396z M242.282,74.595c-0.108,0.095-0.188,0.166-0.27,0.236
		c0.081,0.064,0.166,0.185,0.242,0.18c0.101-0.006,0.194-0.111,0.29-0.175C242.467,74.765,242.389,74.692,242.282,74.595z
		 M240.037,72.232c-0.116,0.111-0.2,0.191-0.283,0.271c0.075,0.058,0.156,0.166,0.225,0.159c0.106-0.011,0.204-0.101,0.306-0.157
		C240.214,72.429,240.144,72.351,240.037,72.232z M241.227,72.974c-0.183-0.109-0.273-0.21-0.356-0.203
		c-0.105,0.009-0.204,0.104-0.305,0.161c0.077,0.066,0.15,0.181,0.234,0.188C240.902,73.131,241.014,73.053,241.227,72.974z
		 M241.796,74.456c0.106-0.101,0.183-0.173,0.258-0.244c-0.099-0.063-0.195-0.17-0.299-0.177c-0.072-0.005-0.154,0.125-0.231,0.194
		C241.604,74.296,241.685,74.363,241.796,74.456z M243.08,75.046c-0.219,0.182-0.301,0.249-0.382,0.316
		c0.076,0.068,0.155,0.193,0.229,0.19c0.103-0.005,0.254-0.086,0.284-0.171C243.24,75.304,243.137,75.178,243.08,75.046z
		 M241.729,73.526c-0.202-0.09-0.301-0.171-0.393-0.163c-0.093,0.007-0.179,0.103-0.267,0.16c0.093,0.066,0.18,0.173,0.281,0.188
		C241.434,73.724,241.533,73.628,241.729,73.526z"/>
	<path fill-rule="evenodd" clip-rule="evenodd" fill="#FFFFFF" d="M250.934,72.172c-1.621-0.107-3.239-0.102-4.813-0.53
		c-0.461-0.126-0.912-0.304-1.35-0.5c-2.382-1.068-3.09-4.809-1.015-6.683c0.692-0.625,1.49-0.899,2.383-0.911
		c0.883-0.013,1.768,0.077,2.651,0.077c1.507,0.001,3.015-0.041,4.522-0.051c0.791-0.005,1.592-0.05,2.373,0.045
		c1.48,0.181,2.853,1.622,2.939,3.111c0.043,0.741-0.023,1.517-0.201,2.237c-0.428,1.733-1.731,2.554-3.38,2.813
		C253.688,71.993,252.305,72.048,250.934,72.172z M254.078,67.406c0.187,0.435,0.298,0.871,0.539,1.216
		c0.343,0.489,0.936,0.462,1.336,0.014c0.554-0.622,0.557-1.868,0.004-2.494c-0.407-0.461-1.019-0.478-1.361,0.034
		C254.361,66.526,254.258,66.964,254.078,67.406z M247.442,67.413c-0.035-0.015-0.07-0.029-0.105-0.044
		c-0.006-0.467-0.111-0.902-0.437-1.256c-0.382-0.416-0.909-0.413-1.297-0.004c-0.59,0.623-0.591,1.927-0.003,2.551
		c0.401,0.425,0.975,0.446,1.309-0.035C247.156,68.27,247.27,67.82,247.442,67.413z M249.732,70.49
		c-0.062,0.207,0.064,0.438,0.388,0.624c0.409,0.234,0.933,0.165,1.242-0.195c0.103-0.119,0.142-0.293,0.209-0.441
		c-0.363,0.197-0.666,0.491-0.964,0.487C250.311,70.961,250.019,70.657,249.732,70.49z M250.72,69.046
		c-0.056-0.002-0.11-0.003-0.166-0.004c-0.109,0.149-0.312,0.304-0.303,0.445c0.009,0.147,0.201,0.365,0.352,0.403
		c0.245,0.063,0.441-0.134,0.413-0.382C250.996,69.346,250.823,69.199,250.72,69.046z"/>
	<path fill-rule="evenodd" clip-rule="evenodd" fill="#FFFFFF" d="M246.2,75.586c-0.198,0.1-0.3,0.194-0.383,0.181
		c-0.102-0.017-0.188-0.125-0.28-0.194c0.092-0.056,0.181-0.15,0.275-0.157C245.902,75.408,246,75.492,246.2,75.586z"/>
	<path fill-rule="evenodd" clip-rule="evenodd" fill="#FFFFFF" d="M244.298,75.743c-0.191,0.098-0.293,0.193-0.378,0.18
		c-0.1-0.015-0.186-0.124-0.276-0.192c0.09-0.057,0.177-0.152,0.271-0.159C244.006,75.565,244.104,75.651,244.298,75.743z"/>
	<path fill-rule="evenodd" clip-rule="evenodd" fill="#FFFFFF" d="M244.709,75.396c0.24,0.197,0.322,0.265,0.404,0.332
		c-0.091,0.069-0.179,0.185-0.276,0.194c-0.078,0.008-0.226-0.101-0.241-0.178C244.576,75.647,244.66,75.53,244.709,75.396z"/>
	<path fill-rule="evenodd" clip-rule="evenodd" fill="#FFFFFF" d="M242.282,74.595c0.106,0.098,0.185,0.17,0.263,0.241
		c-0.096,0.063-0.189,0.169-0.29,0.175c-0.076,0.005-0.161-0.115-0.242-0.18C242.094,74.761,242.174,74.689,242.282,74.595z"/>
	<path fill-rule="evenodd" clip-rule="evenodd" fill="#FFFFFF" d="M240.037,72.232c0.106,0.118,0.177,0.196,0.247,0.273
		c-0.102,0.057-0.199,0.146-0.306,0.157c-0.068,0.007-0.149-0.102-0.225-0.159C239.837,72.424,239.921,72.344,240.037,72.232z"/>
	<path fill-rule="evenodd" clip-rule="evenodd" fill="#FFFFFF" d="M241.227,72.974c-0.213,0.079-0.324,0.157-0.427,0.146
		c-0.084-0.008-0.157-0.122-0.234-0.188c0.101-0.058,0.199-0.152,0.305-0.161C240.953,72.764,241.044,72.864,241.227,72.974z"/>
	<path fill-rule="evenodd" clip-rule="evenodd" fill="#FFFFFF" d="M241.796,74.456c-0.111-0.093-0.192-0.16-0.272-0.227
		c0.077-0.069,0.159-0.199,0.231-0.194c0.104,0.007,0.2,0.113,0.299,0.177C241.979,74.283,241.902,74.355,241.796,74.456z"/>
	<path fill-rule="evenodd" clip-rule="evenodd" fill="#FFFFFF" d="M243.08,75.046c0.057,0.132,0.16,0.258,0.131,0.336
		c-0.03,0.085-0.182,0.166-0.284,0.171c-0.073,0.003-0.152-0.122-0.229-0.19C242.779,75.295,242.861,75.228,243.08,75.046z"/>
	<path fill-rule="evenodd" clip-rule="evenodd" fill="#FFFFFF" d="M241.729,73.526c-0.195,0.102-0.295,0.197-0.378,0.186
		c-0.102-0.016-0.188-0.122-0.281-0.188c0.088-0.058,0.174-0.153,0.267-0.16C241.428,73.355,241.526,73.437,241.729,73.526z"/>
	<path fill-rule="evenodd" clip-rule="evenodd" d="M254.078,67.406c0.18-0.442,0.283-0.88,0.518-1.23
		c0.343-0.512,0.954-0.495,1.361-0.034c0.553,0.626,0.55,1.872-0.004,2.494c-0.4,0.448-0.993,0.476-1.336-0.014
		C254.376,68.277,254.265,67.841,254.078,67.406z"/>
	<path fill-rule="evenodd" clip-rule="evenodd" d="M247.442,67.413c-0.173,0.407-0.286,0.856-0.533,1.212
		c-0.334,0.481-0.907,0.46-1.309,0.035c-0.588-0.624-0.587-1.928,0.003-2.551c0.388-0.409,0.915-0.412,1.297,0.004
		c0.325,0.354,0.431,0.789,0.437,1.256C247.372,67.384,247.407,67.398,247.442,67.413z"/>
	<path fill-rule="evenodd" clip-rule="evenodd" d="M249.732,70.49c0.286,0.167,0.578,0.471,0.875,0.475
		c0.298,0.004,0.601-0.29,0.964-0.487c-0.067,0.148-0.106,0.322-0.209,0.441c-0.31,0.36-0.833,0.43-1.242,0.195
		C249.797,70.929,249.671,70.697,249.732,70.49z"/>
	<path fill-rule="evenodd" clip-rule="evenodd" d="M250.72,69.046c0.104,0.153,0.276,0.3,0.296,0.463
		c0.028,0.248-0.168,0.445-0.413,0.382c-0.15-0.038-0.343-0.256-0.352-0.403c-0.009-0.142,0.193-0.296,0.303-0.445
		C250.609,69.043,250.664,69.044,250.72,69.046z"/>
</g>
<g>
	<path fill-rule="evenodd" clip-rule="evenodd" fill="#FFFFFF" d="M213.281,20.229c0,1.099,0.079,2.207-0.034,3.294
		c-0.054,0.522-0.339,1.198-0.745,1.477c-3.565,2.452-7.186,4.825-10.778,7.237c-0.576,0.387-1.073,0.381-1.648-0.004
		c-3.593-2.412-7.211-4.787-10.78-7.234c-0.389-0.267-0.721-0.904-0.736-1.381c-0.075-2.296-0.071-4.597-0.001-6.894
		c0.014-0.449,0.332-1.051,0.7-1.303c3.601-2.461,7.244-4.857,10.867-7.285c0.542-0.363,1.022-0.357,1.563,0.004
		c3.624,2.427,7.27,4.821,10.865,7.288c0.383,0.263,0.651,0.911,0.696,1.405C213.352,17.958,213.281,19.096,213.281,20.229z
		 M191.526,16.433c1.22,0.82,2.296,1.58,3.419,2.262c0.189,0.115,0.627-0.024,0.867-0.176c1.177-0.747,2.329-1.532,3.479-2.319
		c0.209-0.143,0.521-0.355,0.526-0.542c0.043-1.531,0.024-3.064,0.024-4.772C196.979,12.795,194.313,14.574,191.526,16.433z
		 M201.948,10.875c0,1.67-0.017,3.118,0.017,4.563c0.005,0.217,0.188,0.502,0.374,0.632c1.253,0.871,2.521,1.723,3.81,2.541
		c0.197,0.125,0.595,0.158,0.781,0.042c1.092-0.678,2.149-1.412,3.356-2.22C207.491,14.571,204.81,12.783,201.948,10.875z
		 M199.86,29.524c0-1.647,0.029-3.038-0.023-4.425c-0.011-0.297-0.252-0.679-0.504-0.859c-1.159-0.83-2.353-1.614-3.554-2.385
		c-0.22-0.141-0.618-0.282-0.784-0.18c-1.142,0.701-2.242,1.466-3.476,2.29C194.336,25.842,197,27.618,199.86,29.524z
		 M201.948,29.523c2.858-1.905,5.539-3.691,8.339-5.558c-1.204-0.805-2.257-1.543-3.353-2.211c-0.203-0.124-0.64-0.061-0.865,0.08
		c-1.235,0.777-2.448,1.593-3.646,2.428c-0.214,0.149-0.447,0.452-0.455,0.689C201.927,26.399,201.948,27.848,201.948,29.523z
		 M197.156,20.203c1.212,0.811,2.299,1.554,3.407,2.263c0.157,0.1,0.477,0.126,0.624,0.033c1.134-0.721,2.245-1.481,3.465-2.297
		c-1.217-0.815-2.279-1.548-3.368-2.238c-0.178-0.112-0.538-0.139-0.705-0.034C199.465,18.632,198.379,19.382,197.156,20.203z
		 M193.319,20.188c-0.946-0.616-1.727-1.123-2.551-1.659c0,1.185,0,2.212,0,3.376C191.649,21.313,192.404,20.805,193.319,20.188z
		 M211.06,21.92c0-1.215,0-2.242,0-3.439c-0.896,0.601-1.667,1.119-2.564,1.72C209.393,20.802,210.149,21.31,211.06,21.92z"/>
	<path fill-rule="evenodd" clip-rule="evenodd" d="M191.526,16.433c2.786-1.859,5.452-3.637,8.316-5.548
		c0,1.708,0.019,3.241-0.024,4.772c-0.005,0.188-0.317,0.399-0.526,0.542c-1.15,0.788-2.303,1.573-3.479,2.319
		c-0.24,0.152-0.678,0.292-0.867,0.176C193.822,18.012,192.746,17.252,191.526,16.433z"/>
	<path fill-rule="evenodd" clip-rule="evenodd" d="M201.948,10.875c2.861,1.908,5.543,3.695,8.338,5.559
		c-1.207,0.808-2.265,1.542-3.356,2.22c-0.187,0.115-0.584,0.083-0.781-0.042c-1.289-0.818-2.557-1.67-3.81-2.541
		c-0.187-0.129-0.369-0.415-0.374-0.632C201.932,13.993,201.948,12.546,201.948,10.875z"/>
	<path fill-rule="evenodd" clip-rule="evenodd" d="M199.86,29.524c-2.86-1.906-5.524-3.682-8.341-5.559
		c1.233-0.824,2.334-1.589,3.476-2.29c0.166-0.102,0.564,0.039,0.784,0.18c1.201,0.771,2.395,1.555,3.554,2.385
		c0.252,0.18,0.493,0.562,0.504,0.859C199.89,26.487,199.86,27.877,199.86,29.524z"/>
	<path fill-rule="evenodd" clip-rule="evenodd" d="M201.948,29.523c0-1.675-0.021-3.124,0.021-4.571
		c0.008-0.238,0.241-0.54,0.455-0.689c1.197-0.835,2.41-1.651,3.646-2.428c0.226-0.141,0.662-0.204,0.865-0.08
		c1.096,0.668,2.148,1.406,3.353,2.211C207.487,25.832,204.807,27.619,201.948,29.523z"/>
	<path fill-rule="evenodd" clip-rule="evenodd" d="M197.156,20.203c1.223-0.821,2.309-1.57,3.423-2.273
		c0.167-0.105,0.527-0.079,0.705,0.034c1.089,0.69,2.151,1.423,3.368,2.238c-1.22,0.816-2.331,1.576-3.465,2.297
		c-0.147,0.094-0.467,0.067-0.624-0.033C199.455,21.756,198.368,21.014,197.156,20.203z"/>
	<path fill-rule="evenodd" clip-rule="evenodd" d="M193.319,20.188c-0.915,0.616-1.67,1.125-2.551,1.717c0-1.164,0-2.191,0-3.376
		C191.593,19.065,192.373,19.572,193.319,20.188z"/>
	<path fill-rule="evenodd" clip-rule="evenodd" d="M211.06,21.92c-0.91-0.611-1.667-1.118-2.564-1.72
		c0.897-0.601,1.669-1.119,2.564-1.72C211.06,19.678,211.06,20.705,211.06,21.92z"/>
</g>
<g>
	<path fill-rule="evenodd" clip-rule="evenodd" d="M212.578,70.237c0,1.1,0.079,2.207-0.034,3.294
		c-0.054,0.522-0.339,1.198-0.745,1.478c-3.565,2.452-7.186,4.824-10.778,7.237c-0.576,0.387-1.073,0.381-1.648-0.005
		c-3.593-2.412-7.211-4.787-10.78-7.234c-0.389-0.267-0.721-0.904-0.736-1.381c-0.075-2.296-0.071-4.597-0.001-6.894
		c0.014-0.449,0.332-1.051,0.7-1.303c3.601-2.461,7.244-4.857,10.867-7.285c0.542-0.362,1.022-0.357,1.563,0.005
		c3.624,2.427,7.27,4.82,10.865,7.287c0.383,0.264,0.651,0.911,0.696,1.405C212.648,67.966,212.578,69.104,212.578,70.237z
		 M190.823,66.441c1.22,0.819,2.296,1.579,3.419,2.262c0.189,0.115,0.627-0.023,0.867-0.176c1.177-0.747,2.329-1.532,3.479-2.319
		c0.209-0.144,0.521-0.355,0.526-0.543c0.043-1.531,0.024-3.063,0.024-4.772C196.275,62.804,193.609,64.582,190.823,66.441z
		 M201.245,60.884c0,1.671-0.017,3.117,0.017,4.563c0.005,0.218,0.188,0.502,0.374,0.632c1.253,0.871,2.521,1.723,3.81,2.541
		c0.197,0.125,0.595,0.157,0.781,0.042c1.092-0.678,2.149-1.412,3.356-2.22C206.788,64.579,204.106,62.792,201.245,60.884z
		 M199.157,79.532c0-1.646,0.029-3.037-0.023-4.425c-0.011-0.298-0.252-0.679-0.504-0.858c-1.159-0.83-2.353-1.615-3.554-2.385
		c-0.22-0.141-0.618-0.282-0.784-0.181c-1.142,0.701-2.242,1.467-3.476,2.291C193.633,75.851,196.297,77.626,199.157,79.532z
		 M201.245,79.531c2.858-1.904,5.539-3.691,8.339-5.557c-1.204-0.805-2.257-1.543-3.353-2.212c-0.203-0.123-0.64-0.061-0.865,0.081
		c-1.235,0.776-2.448,1.592-3.646,2.428c-0.214,0.149-0.447,0.451-0.455,0.689C201.224,76.407,201.245,77.856,201.245,79.531z
		 M196.453,70.211c1.212,0.811,2.299,1.554,3.407,2.263c0.157,0.101,0.477,0.127,0.624,0.033c1.134-0.722,2.245-1.48,3.465-2.297
		c-1.217-0.815-2.279-1.548-3.368-2.238c-0.178-0.112-0.538-0.14-0.705-0.033C198.762,68.641,197.676,69.391,196.453,70.211z
		 M192.616,70.196c-0.946-0.615-1.727-1.122-2.551-1.659c0,1.186,0,2.213,0,3.377C190.946,71.321,191.701,70.813,192.616,70.196z
		 M210.356,71.929c0-1.215,0-2.242,0-3.439c-0.896,0.602-1.667,1.118-2.564,1.72C208.689,70.811,209.446,71.318,210.356,71.929z"/>
	<path fill-rule="evenodd" clip-rule="evenodd" fill="#FFFFFF" d="M190.823,66.441c2.786-1.859,5.452-3.638,8.316-5.549
		c0,1.709,0.019,3.241-0.024,4.772c-0.005,0.188-0.317,0.399-0.526,0.543c-1.15,0.787-2.303,1.572-3.479,2.319
		c-0.24,0.152-0.678,0.291-0.867,0.176C193.119,68.021,192.043,67.261,190.823,66.441z"/>
	<path fill-rule="evenodd" clip-rule="evenodd" fill="#FFFFFF" d="M201.245,60.884c2.861,1.908,5.543,3.695,8.338,5.559
		c-1.207,0.808-2.265,1.542-3.356,2.22c-0.187,0.115-0.584,0.083-0.781-0.042c-1.289-0.818-2.557-1.67-3.81-2.541
		c-0.187-0.13-0.369-0.414-0.374-0.632C201.229,64.001,201.245,62.555,201.245,60.884z"/>
	<path fill-rule="evenodd" clip-rule="evenodd" fill="#FFFFFF" d="M199.157,79.532c-2.86-1.906-5.524-3.682-8.341-5.558
		c1.233-0.824,2.334-1.59,3.476-2.291c0.166-0.102,0.564,0.04,0.784,0.181c1.201,0.77,2.395,1.555,3.554,2.385
		c0.252,0.18,0.493,0.561,0.504,0.858C199.187,76.495,199.157,77.886,199.157,79.532z"/>
	<path fill-rule="evenodd" clip-rule="evenodd" fill="#FFFFFF" d="M201.245,79.531c0-1.675-0.021-3.124,0.021-4.57
		c0.008-0.238,0.241-0.54,0.455-0.689c1.197-0.836,2.41-1.651,3.646-2.428c0.226-0.142,0.662-0.204,0.865-0.081
		c1.096,0.669,2.148,1.407,3.353,2.212C206.784,75.84,204.104,77.627,201.245,79.531z"/>
	<path fill-rule="evenodd" clip-rule="evenodd" fill="#FFFFFF" d="M196.453,70.211c1.223-0.82,2.309-1.57,3.423-2.272
		c0.167-0.106,0.527-0.079,0.705,0.033c1.089,0.69,2.151,1.423,3.368,2.238c-1.22,0.816-2.331,1.575-3.465,2.297
		c-0.147,0.094-0.467,0.067-0.624-0.033C198.752,71.765,197.665,71.021,196.453,70.211z"/>
	<path fill-rule="evenodd" clip-rule="evenodd" fill="#FFFFFF" d="M192.616,70.196c-0.915,0.616-1.67,1.125-2.551,1.718
		c0-1.164,0-2.191,0-3.377C190.89,69.074,191.67,69.581,192.616,70.196z"/>
	<path fill-rule="evenodd" clip-rule="evenodd" fill="#FFFFFF" d="M210.356,71.929c-0.91-0.61-1.667-1.118-2.564-1.72
		c0.897-0.602,1.669-1.118,2.564-1.72C210.356,69.687,210.356,70.714,210.356,71.929z"/>
</g>
<path fill-rule="evenodd" clip-rule="evenodd" fill="#FFFFFF" d="M250.476,26.143c-0.169,0-0.293,0-0.464,0c0,0.159,0,0.299,0,0.438
	c-0.006,1.667-0.002,3.333-0.021,5c-0.014,1.158-0.506,2.029-1.613,2.484c-0.178,0.072-0.374,0.123-0.565,0.133
	c-0.14,0.006-0.362-0.031-0.407-0.121c-0.063-0.122-0.054-0.374,0.033-0.463c0.688-0.7,0.733-1.578,0.735-2.473
	c0.004-1.549,0.004-3.099,0.004-4.647c0-0.035-0.014-0.07-0.042-0.196c-0.128,0.178-0.26,0.292-0.3,0.432
	c-0.091,0.322-0.187,0.656-0.192,0.987c-0.021,1.158-0.016,2.317,0.004,3.476c0.019,1.179-0.479,1.869-1.624,2.142
	c-0.338,0.081-0.693,0.12-1.041,0.119c-0.13,0-0.319-0.145-0.369-0.268c-0.034-0.084,0.099-0.312,0.21-0.364
	c0.919-0.435,1.138-1.203,1.104-2.133c-0.028-0.778-0.006-1.559-0.006-2.373c-0.273,0.041-0.513,0.085-0.754,0.112
	c-0.85,0.098-1.69,0.085-2.499-0.242c-0.888-0.359-1.531-0.972-1.886-1.868c-0.378-0.951-0.902-1.778-1.797-2.342
	c-0.191-0.121-0.291-0.388-0.434-0.587c0.264-0.07,0.538-0.227,0.789-0.195c0.989,0.123,1.677,0.724,2.181,1.547
	c0.489,0.8,1.126,1.4,2.077,1.578c0.78,0.146,1.529-0.002,2.247-0.314c0.084-0.037,0.182-0.127,0.203-0.21
	c0.192-0.754,0.59-1.375,1.229-1.871c-0.796-0.159-1.549-0.278-2.285-0.463c-1.475-0.369-2.826-0.989-3.874-2.136
	c-0.262-0.286-0.499-0.604-0.696-0.938c-0.136-0.229-0.286-0.286-0.533-0.273c-2.462,0.128-4.9,0.41-7.29,1.038
	c-0.097,0.026-0.196,0.041-0.304,0.009c2.55-0.787,5.183-1.064,7.848-1.192c-0.228-0.646-0.228-0.646-0.835-0.659
	c-2.283-0.049-4.554,0.062-6.804,0.48c-0.099,0.018-0.2,0.016-0.306-0.022c1.238-0.322,2.503-0.483,3.776-0.522
	c1.271-0.039,2.544-0.009,3.872-0.009c-0.408-1.279-0.549-2.488-0.556-3.717c-0.01-1.666,0.497-3.144,1.566-4.43
	c0.093-0.111,0.142-0.332,0.102-0.471c-0.395-1.368-0.268-2.701,0.196-4.025c0.09-0.256,0.262-0.326,0.479-0.286
	c0.484,0.09,0.995,0.137,1.437,0.333c0.888,0.396,1.732,0.887,2.604,1.32c0.157,0.078,0.372,0.132,0.535,0.093
	c2.511-0.603,5.023-0.633,7.548-0.092c0.176,0.037,0.411-0.024,0.569-0.122c1.049-0.641,2.12-1.223,3.342-1.464
	c0.076-0.015,0.152-0.033,0.229-0.046c0.588-0.095,0.67-0.047,0.849,0.504c0.373,1.15,0.466,2.314,0.195,3.503
	c-0.03,0.132,0.032,0.334,0.125,0.437c1.213,1.335,1.82,2.907,1.775,4.701c-0.03,1.218-0.16,2.433-0.249,3.702
	c2.52-0.066,5.132,0.015,7.712,0.615c-0.101,0-0.203,0.016-0.301-0.002c-2.327-0.433-4.677-0.536-7.037-0.476
	c-0.572,0.015-0.572,0.013-0.737,0.649c2.718,0.121,5.404,0.405,8.02,1.149c-0.005,0.033-0.01,0.066-0.016,0.1
	c-0.104-0.018-0.21-0.027-0.312-0.054c-2.415-0.639-4.879-0.922-7.367-1.047c-0.293-0.015-0.455,0.056-0.6,0.34
	c-0.777,1.529-2.115,2.374-3.702,2.837c-0.968,0.282-1.97,0.446-2.967,0.665c0-0.028-0.011,0.01,0.001,0.019
	c0.972,0.771,1.289,1.826,1.299,3.006c0.012,1.367,0.002,2.734,0.004,4.102c0,0.754,0.303,1.322,0.986,1.688
	c0.147,0.079,0.228,0.281,0.339,0.427c-0.171,0.093-0.348,0.272-0.511,0.261c-0.437-0.031-0.885-0.095-1.296-0.236
	c-0.851-0.293-1.248-0.93-1.245-1.867c0.003-1.159,0.015-2.317,0.011-3.477c-0.001-0.532-0.074-1.05-0.521-1.529
	c-0.012,0.182-0.023,0.278-0.023,0.376c0.003,1.653-0.004,3.307,0.015,4.96c0.008,0.688,0.159,1.337,0.665,1.866
	c0.102,0.106,0.153,0.367,0.093,0.49c-0.052,0.104-0.304,0.17-0.458,0.155c-1.218-0.121-2.102-1.169-2.125-2.539
	c-0.029-1.692-0.03-3.385-0.043-5.077C250.475,26.437,250.476,26.297,250.476,26.143z M250.484,23.205
	c1.371-0.124,2.754-0.179,4.111-0.392c1.648-0.259,2.952-1.079,3.38-2.813c0.178-0.721,0.244-1.496,0.201-2.237
	c-0.087-1.489-1.459-2.931-2.939-3.111c-0.781-0.095-1.582-0.05-2.373-0.045c-1.508,0.01-3.016,0.052-4.522,0.051
	c-0.884,0-1.769-0.09-2.651-0.077c-0.893,0.012-1.69,0.286-2.383,0.911c-2.075,1.874-1.367,5.614,1.015,6.683
	c0.438,0.196,0.889,0.374,1.35,0.5C247.245,23.103,248.863,23.097,250.484,23.205z M245.751,26.619
	c-0.2-0.094-0.298-0.178-0.388-0.171c-0.095,0.007-0.184,0.102-0.275,0.157c0.093,0.069,0.179,0.178,0.28,0.194
	C245.451,26.813,245.553,26.718,245.751,26.619z M243.849,26.776c-0.194-0.092-0.292-0.178-0.384-0.172
	c-0.094,0.007-0.181,0.103-0.271,0.159c0.091,0.068,0.177,0.178,0.276,0.192C243.556,26.969,243.657,26.874,243.849,26.776z
	 M244.26,26.428c-0.049,0.135-0.133,0.252-0.113,0.349c0.016,0.077,0.163,0.186,0.241,0.178c0.098-0.01,0.186-0.125,0.276-0.194
	C244.582,26.693,244.5,26.625,244.26,26.428z M241.833,25.627c-0.108,0.095-0.188,0.166-0.27,0.236
	c0.081,0.064,0.166,0.185,0.242,0.18c0.101-0.006,0.194-0.111,0.29-0.175C242.018,25.797,241.939,25.725,241.833,25.627z
	 M239.588,23.265c-0.116,0.111-0.2,0.191-0.283,0.271c0.075,0.058,0.156,0.166,0.225,0.159c0.106-0.011,0.204-0.101,0.306-0.157
	C239.765,23.461,239.694,23.383,239.588,23.265z M240.777,24.006c-0.183-0.109-0.273-0.21-0.356-0.203
	c-0.105,0.009-0.204,0.104-0.305,0.161c0.077,0.066,0.15,0.181,0.234,0.188C240.453,24.164,240.564,24.085,240.777,24.006z
	 M241.347,25.489c0.106-0.101,0.183-0.173,0.258-0.244c-0.099-0.063-0.195-0.17-0.299-0.177c-0.072-0.005-0.154,0.125-0.231,0.194
	C241.154,25.329,241.235,25.396,241.347,25.489z M242.631,26.079c-0.219,0.182-0.301,0.249-0.382,0.316
	c0.076,0.068,0.155,0.193,0.229,0.19c0.103-0.005,0.254-0.086,0.284-0.171C242.791,26.336,242.688,26.21,242.631,26.079z
	 M241.279,24.559c-0.202-0.09-0.301-0.171-0.393-0.163c-0.093,0.007-0.179,0.103-0.267,0.16c0.093,0.066,0.18,0.173,0.281,0.188
	C240.984,24.756,241.084,24.661,241.279,24.559z"/>
</svg>
