<?xml version="1.0" encoding="utf-8"?>
<!-- Generator: Adobe Illustrator 16.0.3, SVG Export Plug-In . SVG Version: 6.00 Build 0)  -->
<!DOCTYPE svg PUBLIC "-//W3C//DTD SVG 1.1//EN" "http://www.w3.org/Graphics/SVG/1.1/DTD/svg11.dtd">
<svg version="1.1" id="Calque_1" xmlns="http://www.w3.org/2000/svg" xmlns:xlink="http://www.w3.org/1999/xlink" x="0px" y="0px"
	 width="250px" height="250px" viewBox="0 0 250 250" enable-background="new 0 0 250 250" xml:space="preserve">
<g>
	<path fill="#FFFFFF" d="M0.121,193.591c2.87,0,5.566,0,8.261,0c5.216-0.051,9.434-4.118,9.434-9.359
		c0.025-40.383,0.025-80.741,0-121.124c0-5.253-3.968-9.035-9.259-9.047c-2.721-0.013-5.441,0-8.386,0c0-9.946,0-19.68,0-29.626
		c0.911-0.037,1.747-0.112,2.558-0.112c29.563,0,59.127,0,88.665-0.063c1.984,0,2.571,0.762,3.033,2.458
		c9.796,36.639,19.642,73.228,29.488,109.817c0.225,0.824,0.474,1.598,1.31,2.496c0.287-0.799,0.624-1.572,0.836-2.396
		c9.858-36.24,19.717-72.492,29.438-108.794c0.786-2.858,1.859-3.619,4.755-3.607c29.051,0.125,58.103,0.075,87.154,0.075
		c0.749,0,1.498,0,2.446,0c0,9.946,0,19.692,0,29.751c-3.095,0-6.115,0.287-9.01-0.088c-3.781-0.474-8.536,4.431-8.599,7.937
		c-0.025,1.198-0.087,2.396-0.087,3.594c0.012,39.347,0.012,78.694,0.05,118.054c0,6.14,3.943,10.033,10.008,10.033
		c2.446,0,4.93,0,7.575,0c0.1,0.773,0.262,1.397,0.262,2.046c0,8.012-0.05,15.999,0.05,24.011c0.025,1.922-0.599,2.471-2.483,2.471
		c-27.94-0.05-55.882-0.025-83.822-0.05c-0.749,0-1.498-0.101-2.347-0.175c0-9.435,0-18.694,0-28.203c5.865,0,11.618,0,17.483,0
		c0-43.253,0-86.231,0-129.21c-0.162-0.05-0.312-0.087-0.486-0.125c-0.25,0.649-0.562,1.298-0.749,1.972
		c-11.78,42.43-23.561,84.834-35.354,127.264c-2.408,8.686-4.854,17.371-7.2,26.057c-0.449,1.697-1.123,2.471-3.07,2.445
		c-10.382-0.125-20.778-0.05-31.473-0.05C86.178,169.456,71.752,116.905,57.351,64.368c-0.212,0.025-0.424,0.063-0.624,0.112
		c0,42.903,0,85.832,0,129.011c5.89,0,11.905,0,18.095,0c0,9.584,0,18.893,0,28.452c-0.824,0.05-1.647,0.125-2.471,0.125
		c-23.174,0-46.348-0.025-69.509,0.05c-2.146,0-2.995-0.425-2.945-2.796c0.162-7.737,0.05-15.499,0.05-23.236
		C-0.016,195.338,0.059,194.589,0.121,193.591z"/>
</g>
</svg>
