<?xml version="1.0" encoding="utf-8"?>
<!-- Generator: Adobe Illustrator 16.0.3, SVG Export Plug-In . SVG Version: 6.00 Build 0)  -->
<!DOCTYPE svg PUBLIC "-//W3C//DTD SVG 1.1//EN" "http://www.w3.org/Graphics/SVG/1.1/DTD/svg11.dtd">
<svg version="1.1" id="Calque_1" xmlns="http://www.w3.org/2000/svg" xmlns:xlink="http://www.w3.org/1999/xlink" x="0px" y="0px"
	 width="250px" height="250px" viewBox="0 0 250 250" enable-background="new 0 0 250 250" xml:space="preserve">
<path fill="#FFFFFF" d="M126.288,179.286c-1.181,0-2.036,0-3.231,0c0,1.405,0,2.623,0,3.849
	c-0.042,14.634-0.014,29.259-0.144,43.894c-0.103,10.158-3.523,17.805-11.217,21.8c-1.239,0.636-2.602,1.08-3.932,1.165
	c-0.97,0.061-2.514-0.264-2.826-1.054c-0.442-1.071-0.379-3.283,0.233-4.073c4.78-6.138,5.09-13.843,5.105-21.705
	c0.026-13.596,0.026-27.201,0.026-40.789c0-0.308-0.094-0.617-0.283-1.724c-0.898,1.569-1.816,2.564-2.092,3.799
	c-0.631,2.829-1.304,5.761-1.33,8.658c-0.152,10.168-0.118,20.343,0.026,30.52c0.128,10.346-3.333,16.406-11.299,18.799
	c-2.35,0.711-4.816,1.054-7.239,1.047c-0.895,0-2.212-1.276-2.567-2.356c-0.231-0.738,0.694-2.737,1.467-3.191
	c6.389-3.823,7.911-10.561,7.674-18.723c-0.188-6.832-0.041-13.689-0.041-20.831c-1.901,0.36-3.565,0.736-5.243,0.977
	c-5.906,0.857-11.747,0.754-17.375-2.125c-6.175-3.146-10.643-8.53-13.113-16.392c-2.638-8.35-6.276-15.61-12.497-20.557
	c-1.33-1.063-2.022-3.412-3.013-5.161c1.833-0.617,3.735-1.989,5.479-1.715c6.877,1.08,11.659,6.361,15.164,13.588
	c3.407,7.021,7.837,12.285,14.45,13.845c5.419,1.286,10.627-0.017,15.616-2.752c0.584-0.317,1.265-1.114,1.414-1.843
	c1.337-6.618,4.102-12.071,8.543-16.426c-5.527-1.388-10.771-2.434-15.884-4.063c-10.26-3.241-19.652-8.676-26.938-18.748
	c-1.82-2.512-3.471-5.302-4.84-8.233c-0.946-2.01-1.992-2.513-3.702-2.401c-17.125,1.127-34.075,3.601-50.698,9.117
	c-0.672,0.224-1.357,0.359-2.11,0.078c17.729-6.911,36.036-9.341,54.572-10.464c-1.589-5.675-1.589-5.675-5.812-5.787
	c-15.875-0.428-31.662,0.545-47.308,4.213c-0.687,0.16-1.393,0.142-2.126-0.193c8.61-2.829,17.405-4.239,26.252-4.582
	c8.84-0.343,17.695-0.082,26.929-0.082c-2.838-11.226-3.824-21.838-3.868-32.628c-0.068-14.625,3.455-27.6,10.89-38.889
	c0.646-0.974,0.984-2.915,0.706-4.133c-2.742-12.011-1.859-23.711,1.359-35.332c0.63-2.251,1.827-2.864,3.333-2.513
	c3.366,0.789,6.92,1.201,9.99,2.924c6.178,3.476,12.044,7.785,18.11,11.586c1.093,0.686,2.584,1.161,3.721,0.818
	c17.458-5.294,34.922-5.56,52.482-0.81c1.225,0.326,2.861-0.21,3.959-1.071c7.293-5.628,14.743-10.734,23.238-12.852
	c0.529-0.133,1.052-0.287,1.594-0.402c4.091-0.835,4.66-0.412,5.902,4.423c2.593,10.093,3.239,20.312,1.353,30.75
	c-0.206,1.161,0.228,2.932,0.867,3.836c8.436,11.718,12.658,25.521,12.345,41.269c-0.204,10.691-1.112,21.358-1.725,32.499
	c17.519-0.583,35.677,0.129,53.617,5.397c-0.699,0-1.412,0.142-2.093-0.018c-16.173-3.801-32.518-4.706-48.93-4.178
	c-3.981,0.133-3.981,0.116-5.121,5.696c18.898,1.064,37.578,3.558,55.765,10.082c-0.034,0.292-0.068,0.584-0.109,0.884
	c-0.727-0.164-1.467-0.231-2.173-0.473c-16.792-5.61-33.926-8.096-51.227-9.193c-2.038-0.128-3.164,0.493-4.17,2.987
	c-5.407,13.425-14.71,20.841-25.741,24.904c-6.732,2.478-13.697,3.918-20.631,5.838c0-0.248-0.076,0.086,0.007,0.171
	c6.764,6.765,8.963,16.022,9.031,26.388c0.081,12.001,0.012,23.994,0.027,36.005c0,6.619,2.104,11.606,6.857,14.813
	c1.018,0.704,1.589,2.468,2.356,3.755c-1.188,0.814-2.424,2.384-3.55,2.29c-3.042-0.276-6.154-0.833-9.018-2.067
	c-5.915-2.57-8.681-8.17-8.653-16.39c0.022-10.186,0.103-20.344,0.075-30.528c-0.007-4.672-0.516-9.216-3.618-13.416
	c-0.087,1.594-0.164,2.435-0.164,3.291c0.021,14.514-0.025,29.028,0.109,43.549c0.055,6.037,1.099,11.729,4.617,16.375
	c0.705,0.924,1.068,3.224,0.651,4.306c-0.365,0.906-2.118,1.489-3.191,1.352c-8.459-1.063-14.611-10.252-14.774-22.288
	c-0.197-14.849-0.202-29.713-0.3-44.562C126.275,181.875,126.288,180.641,126.288,179.286z M126.341,153.5
	c9.536-1.089,19.15-1.577,28.589-3.446c11.456-2.264,20.521-9.466,23.496-24.689c1.234-6.332,1.698-13.133,1.398-19.636
	c-0.604-13.074-10.145-25.731-20.44-27.313c-5.426-0.832-11-0.438-16.501-0.395c-10.483,0.09-20.967,0.459-31.438,0.45
	c-6.146,0-12.304-0.793-18.43-0.676c-6.213,0.106-11.752,2.512-16.568,7.997c-14.436,16.453-9.506,49.277,7.047,58.664
	c3.058,1.724,6.188,3.283,9.394,4.391C103.818,152.608,115.071,152.557,126.341,153.5z M93.429,183.47
	c-1.39-0.823-2.07-1.561-2.694-1.509c-0.665,0.068-1.278,0.899-1.916,1.389c0.653,0.6,1.251,1.56,1.951,1.697
	C91.345,185.167,92.051,184.344,93.429,183.47z M80.208,184.842c-1.357-0.807-2.034-1.561-2.675-1.509
	c-0.653,0.068-1.255,0.909-1.889,1.405c0.639,0.592,1.235,1.561,1.93,1.681C78.174,186.539,78.863,185.707,80.208,184.842z
	 M83.06,181.79c-0.339,1.183-0.924,2.212-0.787,3.068c0.115,0.669,1.142,1.629,1.685,1.561c0.677-0.086,1.289-1.098,1.915-1.697
	C85.3,184.122,84.731,183.521,83.06,181.79z M66.188,174.76c-0.756,0.84-1.313,1.458-1.883,2.074
	c0.57,0.566,1.157,1.621,1.686,1.577c0.705-0.051,1.351-0.976,2.022-1.533C67.468,176.252,66.928,175.617,66.188,174.76z
	 M50.575,154.03c-0.802,0.97-1.387,1.673-1.968,2.376c0.523,0.505,1.087,1.456,1.562,1.396c0.746-0.103,1.426-0.892,2.132-1.38
	C51.812,155.745,51.308,155.06,50.575,154.03z M58.845,160.528c-1.276-0.96-1.9-1.842-2.476-1.782
	c-0.729,0.086-1.421,0.908-2.12,1.414c0.536,0.574,1.039,1.586,1.623,1.654C56.592,161.918,57.366,161.224,58.845,160.528z
	 M62.813,173.542c0.732-0.874,1.263-1.509,1.791-2.134c-0.692-0.559-1.357-1.492-2.077-1.553c-0.504-0.051-1.073,1.099-1.611,1.698
	C61.468,172.145,62.023,172.737,62.813,173.542z M71.733,178.729c-1.52,1.604-2.089,2.186-2.655,2.769
	c0.531,0.6,1.082,1.697,1.597,1.671c0.711-0.043,1.766-0.753,1.969-1.499C72.849,180.983,72.127,179.878,71.733,178.729z
	 M62.336,165.381c-1.405-0.788-2.092-1.491-2.729-1.423c-0.654,0.051-1.251,0.899-1.861,1.407c0.644,0.574,1.249,1.508,1.954,1.645
	C60.285,167.113,60.978,166.281,62.336,165.381z"/>
</svg>
