<?xml version="1.0" encoding="utf-8"?>
<!-- Generator: Adobe Illustrator 16.0.3, SVG Export Plug-In . SVG Version: 6.00 Build 0)  -->
<!DOCTYPE svg PUBLIC "-//W3C//DTD SVG 1.1//EN" "http://www.w3.org/Graphics/SVG/1.1/DTD/svg11.dtd">
<svg version="1.1" id="Calque_1" xmlns="http://www.w3.org/2000/svg" xmlns:xlink="http://www.w3.org/1999/xlink" x="0px" y="0px"
	 width="250px" height="250px" viewBox="0 0 250 250" enable-background="new 0 0 250 250" xml:space="preserve">
<g>
	<g>
		<path fill="#FFFFFF" d="M251.108,29.046c-9.245,5.031-19.164,8.451-29.586,9.972c10.643-7.833,18.783-20.245,22.646-34.993
			c-9.98,7.246-20.99,12.518-32.73,15.357C202.039,7.075,188.669-0.6,173.852-0.6c-28.458,0-51.521,28.335-51.521,63.268
			c0,4.956,0.454,9.807,1.336,14.416C80.858,74.448,42.904,49.246,17.499,10.962c-4.438,9.332-6.964,20.208-6.964,31.814
			c0,21.955,9.098,41.327,22.904,52.67C25.003,95.1,17.058,92.246,10.105,87.5v0.791c0,30.655,17.767,56.248,41.32,62.063
			c-4.322,1.424-8.865,2.215-13.585,2.215c-3.323,0-6.535-0.407-9.686-1.176c6.547,25.157,25.57,43.444,48.1,43.941
			c-17.619,16.977-39.836,27.055-63.966,27.055c-4.156,0-8.258-0.31-12.286-0.866C22.802,239.508,49.868,250,78.951,250
			c94.766,0,146.556-96.438,146.556-180.057l-0.172-8.194C235.463,52.876,244.218,41.729,251.108,29.046z"/>
	</g>
</g>
</svg>
